  0
SECTION
  2
HEADER
  9
$ACADVER
  1
AC1009
  9
$EXTMAX
 10
1219.19995117188
 20
609.599975585938
 30
0.0
  9
$EXTMIN
 10
0.0
 20
0.0
 30
0.0
  9
$INSUNITS
 70
     1
  9
$LUNITS
 70
     2
  9
$LUPREC
 70
     4
  9
$MEASUREMENT
 70
     0
  0
ENDSEC
  0
SECTION
  2
TABLES
  0
TABLE
  2
LAYER
 70
     1
  0
LAYER
  2
0
 70
     0
 62
     7
  6
Continuous
  0
LAYER
  2
Default
 70
     0
 62
    70
  6
Continuous
  0
ENDTAB
  0
TABLE
  2
APPID
 70
     1
  0
APPID
  2
ACAD
 70
     0
  0
ENDTAB
  0
ENDSEC
  0
SECTION
  2
ENTITIES
  0
POLYLINE
  8
Default
 66
     1
 10
0.0
 20
0.0
 30
0.0
 70
     1
  0
VERTEX
  8
Default
 10
0.96875
 20
6.34375
 42
0.0
  0
VERTEX
  8
Default
 10
11.01875
 20
6.34375
 42
0.0
  0
VERTEX
  8
Default
 10
11.01875
 20
20.59375
 42
0.0
  0
VERTEX
  8
Default
 10
0.96875
 20
20.59375
 42
0.0
  0
SEQEND
  0
POLYLINE
  8
Default
 66
     1
 10
0.0
 20
0.0
 30
0.0
 70
     1
  0
VERTEX
  8
Default
 10
11.9375
 20
12.15625
 42
0.0
  0
VERTEX
  8
Default
 10
22.9375
 20
12.15625
 42
0.0
  0
VERTEX
  8
Default
 10
22.9375
 20
23.15625
 42
0.0
  0
VERTEX
  8
Default
 10
11.9375
 20
23.15625
 42
0.0
  0
SEQEND
  0
POINT
  8
Default
 10
12.1875
 20
18.65625
 30
0.0
  0
POINT
  8
Default
 10
12.1875
 20
16.65625
 30
0.0
  0
POINT
  8
Default
 10
20.1875
 20
18.65625
 30
0.0
  0
POINT
  8
Default
 10
20.1875
 20
16.65625
 30
0.0
  0
POINT
  8
Default
 10
12.6875
 20
18.65625
 30
0.0
  0
POINT
  8
Default
 10
12.6875
 20
16.65625
 30
0.0
  0
POINT
  8
Default
 10
20.6875
 20
18.65625
 30
0.0
  0
POINT
  8
Default
 10
20.6875
 20
16.65625
 30
0.0
  0
POINT
  8
Default
 10
14.90625
 20
13.46875
 30
0.0
  0
POINT
  8
Default
 10
14.90625
 20
21.84375
 30
0.0
  0
POINT
  8
Default
 10
17.96875
 20
21.84375
 30
0.0
  0
POINT
  8
Default
 10
17.96875
 20
13.46875
 30
0.0
  0
POINT
  8
Default
 10
15.25
 20
14.21875
 30
0.0
  0
POINT
  8
Default
 10
17.625
 20
14.21875
 30
0.0
  0
POINT
  8
Default
 10
15.25
 20
21.09375
 30
0.0
  0
POINT
  8
Default
 10
17.625
 20
21.09375
 30
0.0
  0
POINT
  8
Default
 10
16.0625
 20
16.96875
 30
0.0
  0
POINT
  8
Default
 10
16.0625
 20
18.34375
 30
0.0
  0
POINT
  8
Default
 10
18.125
 20
18.34375
 30
0.0
  0
POINT
  8
Default
 10
18.125
 20
16.96875
 30
0.0
  0
POLYLINE
  8
Default
 66
     1
 10
0.0
 20
0.0
 30
0.0
 70
     1
  0
VERTEX
  8
Default
 10
12.03125
 20
6.4375
 42
0.0
  0
VERTEX
  8
Default
 10
23.03125
 20
6.4375
 42
0.0
  0
VERTEX
  8
Default
 10
23.03125
 20
11.6875
 42
0.0
  0
VERTEX
  8
Default
 10
12.03125
 20
11.6875
 42
0.0
  0
SEQEND
  0
POLYLINE
  8
Default
 66
     1
 10
0.0
 20
0.0
 30
0.0
 70
     1
  0
VERTEX
  8
Default
 10
15.26725
 20
7.1875
 42
0.0
  0
VERTEX
  8
Default
 10
19.79525
 20
7.1875
 42
0.4142135623731
  0
VERTEX
  8
Default
 10
20.03125
 20
7.4235
 42
0.0
  0
VERTEX
  8
Default
 10
20.03125
 20
10.4515
 42
0.4142135623731
  0
VERTEX
  8
Default
 10
19.79525
 20
10.6875
 42
0.0
  0
VERTEX
  8
Default
 10
15.26725
 20
10.6875
 42
0.4142135623731
  0
VERTEX
  8
Default
 10
15.03125
 20
10.4515
 42
0.0
  0
VERTEX
  8
Default
 10
15.03125
 20
7.4235
 42
0.4142135623731
  0
SEQEND
  0
POINT
  8
Default
 10
15.28125
 20
7.4375
 30
0.0
  0
POINT
  8
Default
 10
19.78125
 20
7.4375
 30
0.0
  0
POINT
  8
Default
 10
19.78125
 20
10.4375
 30
0.0
  0
POINT
  8
Default
 10
15.28125
 20
10.4375
 30
0.0
  0
POLYLINE
  8
Default
 66
     1
 10
0.0
 20
0.0
 30
0.0
 70
     0
  0
VERTEX
  8
Default
 10
11.90625
 20
11.4375
 42
0.0
  0
VERTEX
  8
Default
 10
23.15625
 20
11.4375
 42
0.0
  0
SEQEND
  0
POLYLINE
  8
Default
 66
     1
 10
0.0
 20
0.0
 30
0.0
 70
     0
  0
VERTEX
  8
Default
 10
0.90625
 20
20.5117502212524
 42
0.0
  0
VERTEX
  8
Default
 10
11.09375
 20
20.5117502212524
 42
0.0
  0
SEQEND
  0
POLYLINE
  8
Default
 66
     1
 10
0.0
 20
0.0
 30
0.0
 70
     1
  0
VERTEX
  8
Default
 10
17.7385390493972
 20
7.375
 42
0.0
  0
VERTEX
  8
Default
 10
18.94375
 20
7.375
 42
0.4142135623731
  0
VERTEX
  8
Default
 10
19.84375
 20
8.275
 42
0.0
  0
VERTEX
  8
Default
 10
19.84375
 20
9.6
 42
0.4142135623731
  0
VERTEX
  8
Default
 10
18.94375
 20
10.5
 42
0.0
  0
VERTEX
  8
Default
 10
16.11875
 20
10.5
 42
0.4142135623731
  0
VERTEX
  8
Default
 10
15.21875
 20
9.6
 42
0.0
  0
VERTEX
  8
Default
 10
15.21875
 20
8.275
 42
0.4142135623731
  0
VERTEX
  8
Default
 10
16.11875
 20
7.375
 42
0.0
  0
VERTEX
  8
Default
 10
17.3239609506028
 20
7.375
 42
0.078129166038
  0
VERTEX
  8
Default
 10
17.3914957514063
 20
7.320438540862
 42
0.3534783019227
  0
SEQEND
  0
POLYLINE
  8
Default
 66
     1
 10
0.0
 20
0.0
 30
0.0
 70
     1
  0
VERTEX
  8
Default
 10
15.71875
 20
13.46875
 42
0.0
  0
VERTEX
  8
Default
 10
15.71875
 20
13.34375
 42
0.0
  0
VERTEX
  8
Default
 10
17.15625
 20
13.34375
 42
0.0
  0
VERTEX
  8
Default
 10
17.15625
 20
13.46875
 42
0.0
  0
VERTEX
  8
Default
 10
17.15625
 20
13.96875
 42
0.0
  0
VERTEX
  8
Default
 10
17.125
 20
13.96875
 42
0.0
  0
VERTEX
  8
Default
 10
17.125
 20
14.96875
 42
0.0
  0
VERTEX
  8
Default
 10
15.75
 20
14.96875
 42
0.0
  0
VERTEX
  8
Default
 10
15.75
 20
13.96875
 42
0.0
  0
VERTEX
  8
Default
 10
15.71875
 20
13.96875
 42
0.0
  0
SEQEND
  0
POLYLINE
  8
Default
 66
     1
 10
0.0
 20
0.0
 30
0.0
 70
     1
  0
VERTEX
  8
Default
 10
15.71875
 20
21.84375
 42
0.0
  0
VERTEX
  8
Default
 10
15.71875
 20
21.96875
 42
0.0
  0
VERTEX
  8
Default
 10
17.15625
 20
21.96875
 42
0.0
  0
VERTEX
  8
Default
 10
17.15625
 20
21.84375
 42
0.0
  0
VERTEX
  8
Default
 10
17.15625
 20
21.34375
 42
0.0
  0
VERTEX
  8
Default
 10
17.125
 20
21.34375
 42
0.0
  0
VERTEX
  8
Default
 10
17.125
 20
20.34375
 42
0.0
  0
VERTEX
  8
Default
 10
15.75
 20
20.34375
 42
0.0
  0
VERTEX
  8
Default
 10
15.75
 20
21.34375
 42
0.0
  0
VERTEX
  8
Default
 10
15.71875
 20
21.34375
 42
0.0
  0
SEQEND
  0
POINT
  8
Default
 10
12.6875
 20
13.46875
 30
0.0
  0
POLYLINE
  8
Default
 66
     1
 10
0.0
 20
0.0
 30
0.0
 70
     0
  0
VERTEX
  8
Default
 10
16.4375
 20
12.15625
 42
0.0
  0
VERTEX
  8
Default
 10
16.4375
 20
23.15625
 42
0.0
  0
SEQEND
  0
POINT
  8
Default
 10
16.4375
 20
22.40625
 30
0.0
  0
POINT
  8
Default
 10
16.4375
 20
12.90625
 30
0.0
  0
POINT
  8
Default
 10
12.6875
 20
21.84375
 30
0.0
  0
POLYLINE
  8
Default
 66
     1
 10
0.0
 20
0.0
 30
0.0
 70
     1
  0
VERTEX
  8
Default
 10
28.46875
 20
4.09375
 42
0.0
  0
VERTEX
  8
Default
 10
28.46875
 20
0.71875
 42
0.0
  0
VERTEX
  8
Default
 10
17.46875
 20
0.71875
 42
0.0
  0
VERTEX
  8
Default
 10
17.46875
 20
0.9258567811866
 42
0.0
  0
VERTEX
  8
Default
 10
14.3008567811866
 20
4.09375
 42
0.0
  0
VERTEX
  8
Default
 10
14.3008567811866
 20
5.46875
 42
0.0
  0
VERTEX
  8
Default
 10
28.46875
 20
5.46875
 42
0.0
  0
SEQEND
  0
POLYLINE
  8
Default
 66
     1
 10
0.0
 20
0.0
 30
0.0
 70
     1
  0
VERTEX
  8
Default
 10
0.0
 20
0.0
 42
0.0
  0
VERTEX
  8
Default
 10
48.0
 20
0.0
 42
0.0
  0
VERTEX
  8
Default
 10
48.0
 20
24.0
 42
0.0
  0
VERTEX
  8
Default
 10
0.0
 20
24.0
 42
0.0
  0
SEQEND
  0
POLYLINE
  8
Default
 66
     1
 10
0.0
 20
0.0
 30
0.0
 70
     1
  0
VERTEX
  8
Default
 10
0.78125
 20
2.0625
 42
0.0
  0
VERTEX
  8
Default
 10
0.78125
 20
5.4375
 42
0.0
  0
VERTEX
  8
Default
 10
11.78125
 20
5.4375
 42
0.0
  0
VERTEX
  8
Default
 10
11.78125
 20
5.2303932188134
 42
0.0
  0
VERTEX
  8
Default
 10
14.949143218813
 20
2.0625
 42
0.0
  0
VERTEX
  8
Default
 10
14.949143218813
 20
0.6875
 42
0.0
  0
VERTEX
  8
Default
 10
0.78125
 20
0.6875
 42
0.0
  0
SEQEND
  0
CIRCLE
  8
Default
 10
6.28125
 20
4.0
 30
0.0
 40
0.8
  0
POLYLINE
  8
Default
 66
     1
 10
0.0
 20
0.0
 30
0.0
 70
     1
  0
VERTEX
  8
Default
 10
7.90625
 20
5.4375
 42
0.0
  0
VERTEX
  8
Default
 10
7.90625
 20
2.8125
 42
0.0
  0
VERTEX
  8
Default
 10
4.65625
 20
2.8125
 42
0.0
  0
VERTEX
  8
Default
 10
4.65625
 20
5.4375
 42
0.0
  0
VERTEX
  8
Default
 10
4.65625
 20
5.5625
 42
0.0
  0
VERTEX
  8
Default
 10
7.90625
 20
5.5625
 42
0.0
  0
SEQEND
  0
POLYLINE
  8
Default
 66
     1
 10
0.0
 20
0.0
 30
0.0
 70
     1
  0
VERTEX
  8
Default
 10
25.6875
 20
7.28125
 42
0.0
  0
VERTEX
  8
Default
 10
27.5625
 20
7.28125
 42
0.0
  0
VERTEX
  8
Default
 10
27.5625
 20
8.34375
 42
0.0
  0
VERTEX
  8
Default
 10
25.6875
 20
8.34375
 42
0.0
  0
SEQEND
  0
POLYLINE
  8
Default
 66
     1
 10
0.0
 20
0.0
 30
0.0
 70
     1
  0
VERTEX
  8
Default
 10
23.8125
 20
6.46875
 42
0.0
  0
VERTEX
  8
Default
 10
28.0625
 20
6.46875
 42
0.0
  0
VERTEX
  8
Default
 10
28.0625
 20
16.51875
 42
0.0
  0
VERTEX
  8
Default
 10
23.8125
 20
16.51875
 42
0.0
  0
SEQEND
  0
POLYLINE
  8
Default
 66
     1
 10
0.0
 20
0.0
 30
0.0
 70
     1
  0
VERTEX
  8
Default
 10
26.3125
 20
9.84375
 42
0.0
  0
VERTEX
  8
Default
 10
27.5625
 20
9.84375
 42
0.0
  0
VERTEX
  8
Default
 10
27.5625
 20
14.84375
 42
0.0
  0
VERTEX
  8
Default
 10
26.3125
 20
14.84375
 42
0.0
  0
SEQEND
  0
POLYLINE
  8
Default
 66
     1
 10
0.0
 20
0.0
 30
0.0
 70
     1
  0
VERTEX
  8
Default
 10
0.53125
 20
21.09375
 42
0.0
  0
VERTEX
  8
Default
 10
11.53125
 20
21.09375
 42
0.0
  0
VERTEX
  8
Default
 10
11.53125
 20
22.84375
 42
0.0
  0
VERTEX
  8
Default
 10
0.53125
 20
22.84375
 42
0.0
  0
SEQEND
  0
POLYLINE
  8
Default
 66
     1
 10
0.0
 20
0.0
 30
0.0
 70
     0
  0
VERTEX
  8
Default
 10
0.46875
 20
22.71875
 42
0.0
  0
VERTEX
  8
Default
 10
11.59375
 20
22.71875
 42
0.0
  0
SEQEND
  0
ENDSEC
  0
EOF
